<?xml version="1.0" encoding="utf-8"?>
<!-- Generator: Adobe Illustrator 19.2.1, SVG Export Plug-In . SVG Version: 6.00 Build 0)  -->
<svg version="1.1" id="Layer_1" xmlns="http://www.w3.org/2000/svg" xmlns:xlink="http://www.w3.org/1999/xlink" x="0px" y="0px"
	 viewBox="0 0 24 18" style="enable-background:new 0 0 24 18;" xml:space="preserve">
<style type="text/css">
	.st0{fill:#FFFFFF;}
</style>
<title>Cart</title>
<desc>Created with Sketch.</desc>
<g>
	<circle class="st0" cx="10.3" cy="16" r="1.3"/>
	<circle class="st0" cx="18.9" cy="16" r="1.3"/>
	<path class="st0" d="M23.7,4.9c-0.1-0.2-0.3-0.3-0.5-0.3H6.5L5.1,1.1C5,0.9,4.8,0.7,4.5,0.7H0.8C0.5,0.7,0.2,1,0.2,1.3
		C0.2,1.7,0.5,2,0.8,2h3.3l1.4,3.5c0,0,0,0,0,0l0.2,0.6l2.7,6.7c0,0.1,0.1,0.1,0.1,0.2c0.1,0.2,0.3,0.3,0.6,0.3h11.1
		c0.3,0,0.5-0.2,0.6-0.4l3-7.5C23.9,5.3,23.8,5.1,23.7,4.9z M17.4,9.7h-2.1v2.1H14V9.7h-2.1V8.5H14V6.4h1.3v2.1h2.1V9.7z"/>
</g>
</svg>
